<?xml version="1.0" encoding="iso-8859-1"?>
<!-- Generator: Adobe Illustrator 19.0.0, SVG Export Plug-In . SVG Version: 6.00 Build 0)  -->
<svg version="1.1" id="Layer_1" xmlns="http://www.w3.org/2000/svg" xmlns:xlink="http://www.w3.org/1999/xlink" x="0px" y="0px"
	 viewBox="0 0 484.8 484.8" style="enable-background:new 0 0 484.8 484.8;" xml:space="preserve">
<g>
	<path style="fill:#F7910B;" d="M484.8,286.4c0,104-95.2,188-242.4,188S0,390.4,0,286.4s95.2-260,242.4-260S484.8,182.4,484.8,286.4
		z"/>
	<path style="fill:#F7910B;" d="M484.8,286.4c0,104-95.2,156-242.4,156S0,390.4,0,286.4s95.2-276,242.4-276S484.8,182.4,484.8,286.4
		z"/>
</g>
<g>
	<path style="fill:#F9A908;" d="M242.4,10.4c147.2,0,242.4,172,242.4,276s-95.2,156-242.4,156"/>
	<path style="fill:#F9A908;" d="M484.8,286.4c0,104-95.2,156-242.4,156S0,390.4,0,286.4s95.2-260,242.4-260S484.8,182.4,484.8,286.4
		z"/>
</g>
<path style="fill:#F9C55D;" d="M0,286.4c0-104,95.2-260,242.4-260"/>
<path style="fill:#F7910B;" d="M242.4,26.4c147.2,0,242.4,156,242.4,260s-95.2,188-242.4,188"/>
<g>
	<path style="fill:#EA7103;" d="M242.4,26.4c147.2,0,242.4,156,242.4,260"/>
	<circle style="fill:#EA7103;" cx="159.2" cy="192" r="25.6"/>
	<circle style="fill:#EA7103;" cx="325.6" cy="192" r="25.6"/>
</g>
<circle style="fill:#1E4784;" cx="159.2" cy="184.8" r="25.6"/>
<path style="fill:#00233F;" d="M159.2,159.2c14.4,0,25.6,11.2,25.6,25.6s-11.2,25.6-25.6,25.6"/>
<circle style="fill:#1E4784;" cx="325.6" cy="184.8" r="25.6"/>
<path style="fill:#00233F;" d="M325.6,159.2c14.4,0,25.6,11.2,25.6,25.6s-11.2,25.6-25.6,25.6"/>
<g>
	<path style="fill:#19BCA4;" d="M192,114.4c0,7.2-11.2,4-26.4,4.8c-14.4,0.8-26.4,4.8-26.4-2.4s11.2-12.8,25.6-13.6
		C180,102.4,192,107.2,192,114.4z"/>
	<path style="fill:#19BCA4;" d="M292.8,114.4c0,7.2,11.2,4,26.4,4.8c14.4,0.8,26.4,4.8,26.4-2.4S334.4,104,320,103.2
		C304.8,102.4,292.8,107.2,292.8,114.4z"/>
</g>
<g>
	<path style="fill:#109DA0;" d="M192,114.4c0,7.2-11.2,4-26.4,4.8c-14.4,0.8-26.4,4.8-26.4-2.4"/>
	<path style="fill:#109DA0;" d="M292.8,114.4c0,7.2,11.2,4,26.4,4.8c14.4,0.8,26.4,4.8,26.4-2.4"/>
</g>
<path style="fill:#F9C55D;" d="M208.8,232.8c0,9.6-28,5.6-62.4,5.6S84,243.2,84,232.8c0-9.6,28-17.6,62.4-17.6
	C180.8,215.2,208.8,223.2,208.8,232.8z"/>
<path style="fill:#F9A908;" d="M400.8,232.8c0,9.6-28,5.6-62.4,5.6s-62.4,4.8-62.4-5.6c0-9.6,28-17.6,62.4-17.6
	S400.8,223.2,400.8,232.8z"/>
<path style="fill:#F7910B;" d="M296,291.2c0,19.2-24,52.8-53.6,52.8s-53.6-34.4-53.6-52.8"/>
<g>
	<path style="fill:#02243E;" d="M132.8,275.2c-4.8,0-8-3.2-8-8s3.2-8,8-8c6.4,0,11.2-4.8,11.2-11.2c0-4.8,3.2-8,8-8s8,3.2,8,8
		C160.8,263.2,148,275.2,132.8,275.2z"/>
	<path style="fill:#02243E;" d="M352,275.2c-15.2,0-27.2-12-27.2-27.2c0-4.8,3.2-8,8-8s8,3.2,8,8c0,6.4,4.8,11.2,11.2,11.2
		c4.8,0,8,3.2,8,8S356,275.2,352,275.2z"/>
	<path style="fill:#02243E;" d="M242.4,311.2c-38.4,0-74.4-15.2-101.6-41.6c-3.2-3.2-3.2-8,0-11.2s8-3.2,11.2,0
		c24,24,56,37.6,90.4,37.6s65.6-13.6,90.4-37.6c3.2-3.2,8-3.2,11.2,0s3.2,8,0,11.2C316.8,296.8,280.8,311.2,242.4,311.2z"/>
</g>
<path style="fill:#F9C55D;" d="M284.8,271.2c0,8.8-19.2,16.8-42.4,16.8s-42.4-7.2-42.4-16.8"/>
<g>
	<circle style="fill:#F7910B;" cx="68.8" cy="262.4" r="4.8"/>
	<circle style="fill:#F7910B;" cx="32.8" cy="278.4" r="8.8"/>
	<circle style="fill:#F7910B;" cx="56.8" cy="246.4" r="1.6"/>
	<circle style="fill:#F7910B;" cx="93.6" cy="260.8" r="1.6"/>
</g>
<g>
	<circle style="fill:#F9A908;" cx="407.2" cy="264.8" r="6.4"/>
	<circle style="fill:#F9A908;" cx="427.2" cy="276" r="1.6"/>
	<circle style="fill:#F9A908;" cx="384.8" cy="205.6" r="2.4"/>
	<circle style="fill:#F9A908;" cx="380.8" cy="298.4" r="10.4"/>
	<circle style="fill:#F9A908;" cx="438.4" cy="299.2" r="4.8"/>
</g>
<g>
	<circle style="fill:#F7910B;" cx="60.8" cy="294.4" r="4"/>
	<circle style="fill:#F7910B;" cx="67.2" cy="227.2" r="3.2"/>
</g>
<g>
	<circle style="fill:#F9A908;" cx="24.8" cy="116.8" r="8.8"/>
	<circle style="fill:#F9A908;" cx="50.4" cy="88.8" r="4.8"/>
	<circle style="fill:#F9A908;" cx="460" cy="136" r="1.6"/>
	<circle style="fill:#F9A908;" cx="453.6" cy="112.8" r="6.4"/>
	<circle style="fill:#F9A908;" cx="474.4" cy="116.8" r="4"/>
	<circle style="fill:#F9A908;" cx="34.4" cy="140.8" r="4.8"/>
</g>
<g>
</g>
<g>
</g>
<g>
</g>
<g>
</g>
<g>
</g>
<g>
</g>
<g>
</g>
<g>
</g>
<g>
</g>
<g>
</g>
<g>
</g>
<g>
</g>
<g>
</g>
<g>
</g>
<g>
</g>
</svg>
