<svg height="512pt" viewBox="0 0 512 512" width="512pt" xmlns="http://www.w3.org/2000/svg"><path d="m247.082031 0c-104.765625-.015625-197.253906 68.390625-227.914062 168.566406-30.660157 100.175782 7.699219 208.628906 94.527343 267.25h.089844l71.503906 49.699219v8.828125c.027344 9.738281 7.914063 17.628906 17.652344 17.65625h150.070313c9.738281-.027344 17.628906-7.917969 17.65625-17.65625v-52.171875c.792969-.527344 1.589843-.96875 2.382812-1.5 3.882813-2.46875 7.769531-5.03125 11.476563-7.679687.011718.09375.039062.183593.085937.265624 1.09375 2.300782 2.660157 4.34375 4.59375 6.003907.617188.617187 1.324219 1.324219 2.027344 1.941406 1.304687 1.132813 2.691406 2.167969 4.148437 3.089844.710938.582031 1.480469 1.082031 2.296876 1.5.828124.464843 1.683593.878906 2.558593 1.234375.714844.347656 1.453125.644531 2.207031.882812 1.148438.441406 2.296876.796875 3.445313 1.148438 2.90625.777344 5.90625 1.164062 8.914063 1.148437 10.042968.015625 19.613281-4.257812 26.308593-11.742187 44.902344-50.246094 70.058594-115.078125 70.796875-182.464844 1.058594-79.449219-52.96875-256-264.828125-256zm0 0" fill="#f0c419"/><path d="m71.765625 399.800781c-3.265625 4.148438-6.710937 8.210938-10.242187 12.183594-13.039063 14.425781-35.289063 15.597656-49.773438 2.621094-14.484375-12.976563-15.75-35.222657-2.835938-49.761719 7.808594-8.746094 14.867188-18.136719 21.097657-28.070312zm0 0" fill="#f29c1f"/><path d="m511.910156 256c-.738281 67.386719-25.894531 132.21875-70.796875 182.464844-6.695312 7.484375-16.265625 11.757812-26.308593 11.742187-3.007813.015625-6.007813-.371093-8.914063-1.148437-1.148437-.351563-2.296875-.707032-3.445313-1.148438-.753906-.238281-1.492187-.535156-2.207031-.882812-.875-.355469-1.730469-.769532-2.558593-1.234375-.816407-.417969-1.585938-.917969-2.296876-1.5-1.457031-.921875-2.84375-1.957031-4.148437-3.089844-.703125-.617187-1.410156-1.324219-2.027344-1.941406-1.933593-1.660157-3.5-3.703125-4.59375-6.003907-.046875-.082031-.074219-.171874-.085937-.265624-3.707032 2.648437-7.59375 5.210937-11.476563 7.679687-.792969.53125-1.589843.972656-2.382812 1.5-21.660157 13.167969-45.296875 22.765625-70.003907 28.425781h-.265624l-.351563-2.734375c-8.910156-21.40625-29.78125-35.390625-52.964844-35.488281h-8.828125c-21.054687.03125-40.101562 12.496094-48.550781 31.78125-.710937 1.671875-1.328125 3.378906-1.855469 5.117188-1.707031 5.214843-2.570312 10.667968-2.558594 16.15625v.085937l-71.503906-49.699219h-.089844c-86.828124-58.621094-125.1875-167.074218-94.527343-267.25 30.660156-100.175781 123.148437-168.582031 227.914062-168.566406 211.859375 0 265.886719 176.550781 264.828125 256zm0 0" fill="#f0c419"/><path d="m384.527344 432.992188c-3.707032 2.648437-7.59375 5.210937-11.476563 7.679687-13.992187-13.128906-14.96875-35.019531-2.207031-49.34375 27.21875-30.367187 44.632812-68.246094 49.957031-108.675781 1.246094-9.636719 9.449219-16.847656 19.164063-16.855469-2.207032 46.519531-20.382813 90.851563-51.464844 125.53125-10.289062 11.527344-11.898438 28.402344-3.972656 41.664063zm0 0" fill="#f29c1f"/><path d="m189.703125 464.15625c-8.433594-19.296875-27.496094-31.761719-48.554687-31.753906h-8.824219c-29.273438.046875-52.972657 23.792968-52.96875 53.066406v8.84375c.019531 9.746094 7.910156 17.648438 17.65625 17.6875h150.070312zm0 0" fill="#2c3e50"/><path d="m370.667969 442.171875v52.171875c-.027344 9.738281-7.917969 17.628906-17.65625 17.65625h-150.070313c-9.738281-.027344-17.625-7.917969-17.652344-17.65625v-8.914062c-.011718-5.488282.851563-10.941407 2.558594-16.15625.527344-1.738282 1.144532-3.445313 1.855469-5.117188 8.449219-19.285156 27.496094-31.75 48.550781-31.78125h8.828125c23.183594.097656 44.054688 14.082031 52.964844 35.488281l.617187 2.734375c24.707032-5.660156 48.34375-15.257812 70.003907-28.425781zm0 0" fill="#35495e"/><path d="m384.613281 433.257812c1.347657 2.136719 2.882813 4.144532 4.59375 6.003907-1.933593-1.660157-3.5-3.703125-4.59375-6.003907zm0 0" fill="#f0c419"/><path d="m370.667969 442.171875v17.65625c-16.492188 10.023437-34.148438 17.992187-52.574219 23.726563-4.101562 1.242187-8.542969.464843-11.976562-2.089844-3.4375-2.554688-5.460938-6.585938-5.453126-10.867188 24.707032-5.660156 48.34375-15.257812 70.003907-28.425781zm0 0" fill="#2c3e50"/><path d="m86.476562 113.390625c4.363282-8.742187 11.210938-16.007813 19.683594-20.878906 8.527344-5.125 18.179688-8.085938 28.113282-8.621094 9.789062-.476563 19.566406 1.082031 28.71875 4.570313 4.421874 1.707031 8.699218 3.773437 12.785156 6.179687 3.886718 2.578125 7.609375 5.402344 11.136718 8.453125 1.140626.992188 1.472657 2.628906.800782 3.984375-.667969 1.355469-2.167969 2.085937-3.648438 1.78125l-.398437-.089844c-4.414063-.917969-8.488281-2.257812-12.554688-3.417969-4.171875-.789062-8.140625-2.078124-12.167969-2.691406-7.792968-1.46875-15.726562-2.058594-23.648437-1.753906-7.785156.574219-15.464844 2.144531-22.851563 4.667969-7.855468 2.746093-15.410156 6.28125-22.550781 10.550781l-.269531.160156c-.847656.492188-1.917969.375-2.640625-.289062-.722656-.664063-.925781-1.71875-.507813-2.605469zm0 0" fill="#e57e25"/><path d="m333.648438 116.125c-7.140626-4.269531-14.695313-7.800781-22.550782-10.546875-7.386718-2.523437-15.066406-4.09375-22.851562-4.667969-7.921875-.304687-15.855469.285156-23.648438 1.753906-4.027344.613282-7.996094 1.902344-12.167968 2.691407-4.066407 1.160156-8.140626 2.5-12.554688 3.417969l-.390625.082031c-1.480469.308593-2.984375-.421875-3.652344-1.777344-.671875-1.355469-.34375-2.992187.800781-3.984375 3.523438-3.054688 7.246094-5.878906 11.132813-8.453125 4.085937-2.40625 8.363281-4.472656 12.785156-6.179687 9.152344-3.492188 18.933594-5.046876 28.71875-4.574219 9.933594.539062 19.585938 3.496093 28.113281 8.625 8.472657 4.871093 15.320313 12.132812 19.683594 20.878906.421875.882813.21875 1.9375-.5 2.601563-.71875.667968-1.785156.785156-2.632812.296874zm0 0" fill="#e57e25"/><path d="m211.769531 326.621094c-75.726562 0-95.65625-47.660156-96.472656-49.6875-1.8125-4.527344.390625-9.664063 4.917969-11.476563s9.667968.390625 11.476562 4.917969c.632813 1.515625 16.875 38.589844 80.078125 38.589844 63.207031 0 79.449219-37.074219 80.105469-38.648438 1.183594-2.925781 3.835938-4.996094 6.957031-5.433594 3.125-.441406 6.246094.824219 8.1875 3.308594 1.941407 2.488282 2.40625 5.820313 1.226563 8.742188-.816406 2.027344-20.746094 49.6875-96.476563 49.6875zm0 0" fill="#802d40"/><path d="m185.289062 175.914062c0-24.421874-19.761718-44.222656-44.140624-44.222656-24.375 0-44.136719 19.800782-44.136719 44.222656 0 24.421876 19.761719 44.222657 44.136719 44.222657 24.378906 0 44.140624-19.800781 44.140624-44.222657zm0 0" fill="#fff"/><path d="m158.804688 175.914062c0-14.652343-11.855469-26.53125-26.480469-26.53125-14.628907 0-26.484375 11.878907-26.484375 26.53125 0 14.652344 11.855468 26.535157 26.484375 26.535157 14.625 0 26.480469-11.882813 26.480469-26.535157zm0 0" fill="#2c3e50"/><path d="m326.53125 175.914062c-.023438 21.074219-14.925781 39.199219-35.597656 43.296876-20.671875 4.09375-41.359375-6.984376-49.410156-26.460938-8.054688-19.472656-1.226563-41.925781 16.300781-53.625 17.527343-11.699219 40.882812-9.386719 55.777343 5.519531 8.292969 8.289063 12.945313 19.542969 12.929688 31.269531zm0 0" fill="#fff"/><path d="m300.046875 175.914062c-.011719 12.644532-8.953125 23.519532-21.359375 25.976563-12.402344 2.457031-24.8125-4.1875-29.644531-15.875-4.832031-11.683594-.734375-25.15625 9.78125-32.175781 10.515625-7.019532 24.527343-5.632813 33.464843 3.3125 4.976563 4.972656 7.769532 11.726562 7.757813 18.761718zm0 0" fill="#2c3e50"/><g fill="#fff"><path d="m158.804688 158.898438c0 4.875-3.953126 8.824218-8.828126 8.824218s-8.828124-3.949218-8.828124-8.824218c0-4.878907 3.953124-8.828126 8.828124-8.828126s8.828126 3.949219 8.828126 8.828126zm0 0"/><path d="m300.046875 158.898438c0 4.875-3.953125 8.824218-8.828125 8.824218s-8.828125-3.949218-8.828125-8.824218c0-4.878907 3.953125-8.828126 8.828125-8.828126s8.828125 3.949219 8.828125 8.828126zm0 0"/></g></svg>